<svg width="219" height="218" xmlns="http://www.w3.org/2000/svg" xmlns:xlink="http://www.w3.org/1999/xlink" overflow="hidden"><defs><clipPath id="clip0"><rect x="227" y="251" width="219" height="218"/></clipPath></defs><g clip-path="url(#clip0)" transform="translate(-227 -251)"><path d="M109 22.7083C61.3125 22.7083 22.7083 61.3125 22.7083 109 22.7083 156.688 61.3125 195.292 109 195.292 156.688 195.292 195.292 156.688 195.292 109 195.292 61.3125 156.688 22.7083 109 22.7083M31.7917 109C31.7917 88.7896 39.5125 70.6229 52.2292 56.7708 54.2729 57.9062 56.3167 59.7229 56.7708 61.3125L56.7708 75.6187C56.7708 76.5271 56.9979 77.6625 57.6792 78.3438L72.6667 97.6458 73.8021 96.5104C74.4833 95.8292 74.7104 94.6937 74.2562 93.7854L71.5312 89.2437C70.3958 87.4271 72.2125 85.1562 74.2562 85.8375 74.9375 86.0646 75.3917 86.5187 75.6187 86.9729L83.1125 101.733C84.0208 103.323 85.3833 104.685 86.9729 105.14L96.9646 108.546C97.6458 108.773 98.1 109.227 98.3271 109.681L99.0083 110.817C99.6896 112.406 101.279 113.315 103.096 113.315L105.821 113.315C106.502 113.315 107.183 113.769 107.637 114.223L110.59 118.537C111.271 119.446 112.179 120.127 113.315 120.354L118.083 121.49C119.446 121.717 120.127 123.306 119.673 124.442 119.673 124.442 116.04 128.075 116.04 133.298 116.04 148.285 129.665 152.6 129.665 156.006 129.665 165.317 128.302 178.26 127.621 183.256 121.717 184.619 115.585 185.527 109.227 185.527 66.5354 186.208 31.7917 151.465 31.7917 109M138.067 180.531C143.062 176.217 151.465 168.95 154.417 165.771 158.277 161.456 158.958 154.417 158.958 154.417 158.958 154.417 174.854 150.102 174.854 138.521 174.854 130.573 158.958 127.167 158.958 127.167 156.233 118.31 142.835 113.542 131.708 113.542 129.21 113.542 120.354 118.083 120.354 118.083L115.812 115.812 115.812 109C115.812 107.637 114.904 106.729 113.542 106.729L109 106.729 109 99.9167C109 98.5542 108.092 97.6458 106.729 97.6458L104.458 97.6458 101.96 99.2354C99.6896 100.825 96.5104 99.9167 95.375 97.4187 95.375 97.4187 93.1042 94.2396 93.1042 92.8771 93.1042 83.1125 104.458 83.7937 104.458 83.7937L109.454 83.7937C110.59 83.7937 111.498 84.475 111.725 85.6104L113.087 91.2875C113.315 92.1958 114.223 93.1042 115.358 93.1042L116.267 93.1042C117.402 93.1042 118.31 92.4229 118.537 91.2875L120.127 82.8854C120.354 82.2042 120.581 81.5229 121.035 80.8417L127.394 72.8937C128.756 71.3042 130.573 70.3958 132.617 70.3958L138.521 70.3958C139.883 70.3958 140.792 69.4875 140.792 68.125L140.792 65.8542 140.11 65.1729C138.748 63.8104 139.656 61.3125 141.7 61.3125L143.062 61.3125C144.425 61.3125 145.333 62.2208 145.333 63.5833 145.333 64.9458 146.242 65.8542 147.604 65.8542L149.875 65.8542 151.237 59.95C151.692 57.9062 150.783 56.0896 149.194 54.9542L129.892 43.3729C129.665 43.1458 129.21 43.1458 128.756 43.1458L124.896 43.1458C122.398 43.1458 120.354 45.1896 120.354 47.6875L120.354 49.9583C120.354 51.3208 119.446 52.2292 118.083 52.2292L115.812 52.2292 113.542 49.9583 106.729 49.9583C105.367 49.9583 104.458 49.05 104.458 47.6875L104.458 42.0104C104.458 41.3292 104.685 40.6479 105.367 40.1937L119.9 34.0625 122.171 37.9229C122.625 38.3771 123.079 38.6042 123.76 38.6042L129.438 38.6042C130.8 38.6042 131.708 37.6958 131.708 36.3333L131.708 35.1979C163.273 44.9625 186.208 74.2562 186.208 109 186.208 141.246 166.225 168.95 138.067 180.531" stroke="#4472C4" stroke-width="1.33159" fill="#FFFFFF" transform="matrix(1.00459 0 0 1 227 251)"/><path d="M136.931 99.4625 126.031 95.8292C125.123 95.6021 124.442 95.6021 123.533 95.8292L115.812 97.6458C115.131 98.1 114.904 99.0083 115.812 99.9167L126.258 99.9167C126.94 99.9167 127.394 99.9167 127.848 100.144L135.796 103.323C137.158 103.777 138.521 102.869 138.521 101.506 138.521 100.598 137.84 99.6896 136.931 99.4625Z" stroke="#4472C4" stroke-width="1.33159" fill="#FFFFFF" transform="matrix(1.00459 0 0 1 227 251)"/></g></svg>