<svg width="176" height="176" xmlns="http://www.w3.org/2000/svg" xmlns:xlink="http://www.w3.org/1999/xlink" overflow="hidden"><defs><clipPath id="clip0"><rect x="366" y="264" width="176" height="176"/></clipPath></defs><g clip-path="url(#clip0)" transform="translate(-366 -264)"><path d="M510.915 284.771C512.12 282.36 514.531 279.949 514.531 277.631 513.326 277.631 513.326 277.631 513.326 277.631 504.98 271.697 504.98 271.697 504.98 271.697 503.775 271.697 503.775 271.697 503.775 271.697 502.569 271.697 500.158 274.108 497.84 276.518 473.916 306.377 473.916 306.377 473.916 306.377 460.748 301.555 446.375 301.555 433.3 306.377 409.283 276.333 409.283 276.333 409.283 276.333 406.872 273.922 404.462 271.511 403.349 271.511 402.143 271.511 402.143 271.511 402.143 271.511 393.798 277.446 393.798 277.446 393.798 277.446 392.592 279.857 395.003 282.268 396.209 284.586 426.067 319.267 426.067 319.267 426.067 319.267 424.862 337.163 424.862 353.947 424.862 370.639 423.656 374.255 424.862 375.461 427.273 377.779 427.273 393.357 427.273 410.049 428.478 426.833 428.478 430.449 430.889 435.178 434.413 436.384 439.235 438.795 442.759 438.795 447.581 440 447.581 438.795 447.581 438.795 447.581 438.795 447.581 424.422 447.581 408.936 447.581 394.563 447.581 390.946 448.786 386.217 448.786 385.012 452.403 381.395 454.721 381.395 458.337 385.012 458.337 386.217 459.543 390.946 459.543 394.563 459.543 408.936 459.543 424.422 459.543 438.795 459.543 438.795 459.543 438.795 459.543 440 464.365 438.795 467.888 438.795 472.71 436.384 476.327 435.178 478.645 430.449 478.645 426.833 479.85 410.049 479.85 393.357 481.056 377.779 482.261 375.368 483.467 374.162 483.467 370.639 482.261 353.947 482.261 337.163 481.056 319.267L510.915 284.771Z" stroke="#70AD47" stroke-width="3.29705" fill="#FFFFFF"/><path d="M436.639 281.248C436.546 271.882 444.428 264 454.072 264 463.716 264 471.505 271.789 471.505 281.433 471.505 291.077 463.716 298.866 454.072 298.866 444.428 298.959 436.639 291.077 436.639 281.248Z" stroke="#70AD47" stroke-width="3.29705" fill="#FFFFFF"/></g></svg>