<svg width="158" height="158" xmlns="http://www.w3.org/2000/svg" xmlns:xlink="http://www.w3.org/1999/xlink" overflow="hidden"><defs><clipPath id="clip0"><rect x="290" y="281" width="158" height="158"/></clipPath></defs><g clip-path="url(#clip0)" transform="translate(-290 -281)"><path d="M365.753 300.75C366.475 296.421 367.196 292.724 368.639 289.838 370.894 286.14 374.501 284.698 378.199 283.976 381.806 283.976 384.782 284.698 389.201 286.14 392.087 286.862 396.506 288.395 400.113 290.559 404.532 292.002 409.672 294.167 414.001 295.7 419.142 297.143 424.282 297.864 428.701 295.7 428.701 295.7 428.701 295.7 428.701 295.7 433.03 294.167 436.006 290.559 438.17 283.255 438.892 281 438.892 281 438.892 281 441.146 281.812 441.146 281.812 441.146 281.812 444.753 283.255 444.753 283.255 444.753 283.255 446.918 283.255 446.918 283.255 446.918 283.255 446.196 285.419 446.196 285.419 446.196 285.419 443.31 295.7 438.17 301.562 432.308 303.726 425.725 305.89 419.142 305.169 411.837 303.005 408.951 302.283 406.696 301.562 404.532 300.75 402.368 300.029 399.392 298.586 397.227 297.864 397.227 297.864 397.227 297.864 397.227 297.864 397.227 297.864 397.227 297.864 397.227 297.864 397.227 297.864 397.227 297.864 397.227 297.864 389.922 294.978 383.339 292.002 378.92 292.002 377.477 292.724 376.034 293.445 375.223 294.978 374.501 296.421 374.501 297.864 373.78 300.75 376.034 300.75 376.034 300.75 376.034 300.75 378.92 313.917 378.92 313.917 378.92 313.917 361.334 313.917 361.334 313.917 361.334 313.917 363.589 300.75 363.589 300.75 363.589 300.75 365.753 300.75 365.753 300.75 365.753 300.75ZM310.111 320.5C423.56 320.5 423.56 320.5 423.56 320.5 433.751 320.5 442.589 328.616 442.589 338.807 442.589 420.062 442.589 420.062 442.589 420.062 442.589 430.252 433.751 439 423.56 439 310.111 439 310.111 439 310.111 439 299.92 439 291.082 430.252 291.082 420.062 291.082 338.807 291.082 338.807 291.082 338.807 291.082 328.616 299.92 320.5 310.111 320.5ZM404.532 405.362C403.089 405.362 401.556 406.895 401.556 409.059 401.556 417.807 401.556 417.807 401.556 417.807 401.556 419.25 403.089 420.783 404.532 420.783 417.699 420.783 417.699 420.783 417.699 420.783 419.142 420.783 420.584 419.25 420.584 417.807 420.584 409.059 420.584 409.059 420.584 409.059 420.584 406.895 419.142 405.362 417.699 405.362 404.532 405.362 404.532 405.362 404.532 405.362ZM340.863 405.362C338.699 405.362 336.444 407.616 336.444 409.781 336.444 416.364 336.444 416.364 336.444 416.364 336.444 418.529 338.699 420.783 340.863 420.783 391.365 420.783 391.365 420.783 391.365 420.783 393.53 420.783 394.973 418.529 394.973 416.364 394.973 409.781 394.973 409.781 394.973 409.781 394.973 407.616 393.53 405.362 391.365 405.362 340.863 405.362 340.863 405.362 340.863 405.362ZM383.339 343.226C381.084 343.226 380.363 344.669 380.363 346.112 380.363 354.95 380.363 354.95 380.363 354.95 380.363 357.114 381.084 358.557 383.339 358.557 395.784 358.557 395.784 358.557 395.784 358.557 397.949 358.557 399.392 357.114 399.392 354.95 399.392 346.112 399.392 346.112 399.392 346.112 399.392 344.669 397.949 343.226 395.784 343.226 383.339 343.226 383.339 343.226 383.339 343.226ZM357.727 343.226C356.194 343.226 354.751 344.669 354.751 346.112 354.751 354.95 354.751 354.95 354.751 354.95 354.751 357.114 356.194 358.557 357.727 358.557 370.894 358.557 370.894 358.557 370.894 358.557 372.337 358.557 373.78 357.114 373.78 354.95 373.78 346.112 373.78 346.112 373.78 346.112 373.78 344.669 372.337 343.226 370.894 343.226 357.727 343.226 357.727 343.226 357.727 343.226ZM316.694 343.226C314.53 343.226 313.808 344.669 313.808 346.112 313.808 354.95 313.808 354.95 313.808 354.95 313.808 357.114 314.53 358.557 316.694 358.557 347.446 358.557 347.446 358.557 347.446 358.557 349.611 358.557 351.144 357.114 351.144 354.95 351.144 346.112 351.144 346.112 351.144 346.112 351.144 344.669 349.611 343.226 347.446 343.226 316.694 343.226 316.694 343.226 316.694 343.226ZM362.868 364.419C361.334 364.419 359.892 365.862 359.892 367.395 359.892 376.143 359.892 376.143 359.892 376.143 359.892 377.586 361.334 379.029 362.868 379.029 376.034 379.029 376.034 379.029 376.034 379.029 377.477 379.029 378.92 377.586 378.92 376.143 378.92 367.395 378.92 367.395 378.92 367.395 378.92 365.862 377.477 364.419 376.034 364.419 362.868 364.419 362.868 364.419 362.868 364.419ZM339.42 364.419C337.256 364.419 335.723 365.862 335.723 367.395 335.723 376.143 335.723 376.143 335.723 376.143 335.723 377.586 337.256 379.029 339.42 379.029 351.865 379.029 351.865 379.029 351.865 379.029 354.03 379.029 355.473 377.586 355.473 376.143 355.473 367.395 355.473 367.395 355.473 367.395 355.473 365.862 354.03 364.419 351.865 364.419 339.42 364.419 339.42 364.419 339.42 364.419ZM315.973 364.419C314.53 364.419 313.087 365.862 313.087 367.395 313.087 376.143 313.087 376.143 313.087 376.143 313.087 377.586 314.53 379.029 315.973 379.029 329.139 379.029 329.139 379.029 329.139 379.029 330.672 379.029 332.115 377.586 332.115 376.143 332.115 367.395 332.115 367.395 332.115 367.395 332.115 365.862 330.672 364.419 329.139 364.419 315.973 364.419 315.973 364.419 315.973 364.419ZM380.363 384.169C378.92 384.169 377.477 385.612 377.477 387.145 377.477 395.893 377.477 395.893 377.477 395.893 377.477 398.057 378.92 399.5 380.363 399.5 393.53 399.5 393.53 399.5 393.53 399.5 394.973 399.5 396.506 398.057 396.506 395.893 396.506 387.145 396.506 387.145 396.506 387.145 396.506 385.612 394.973 384.169 393.53 384.169 380.363 384.169 380.363 384.169 380.363 384.169ZM357.006 384.169C354.751 384.169 353.308 385.612 353.308 387.145 353.308 395.893 353.308 395.893 353.308 395.893 353.308 398.057 354.751 399.5 357.006 399.5 369.451 399.5 369.451 399.5 369.451 399.5 371.615 399.5 372.337 398.057 372.337 395.893 372.337 387.145 372.337 387.145 372.337 387.145 372.337 385.612 371.615 384.169 369.451 384.169 357.006 384.169 357.006 384.169 357.006 384.169ZM315.973 384.169C313.808 384.169 312.365 385.612 312.365 387.145 312.365 395.893 312.365 395.893 312.365 395.893 312.365 398.057 313.808 399.5 315.973 399.5 345.282 399.5 345.282 399.5 345.282 399.5 347.446 399.5 348.889 398.057 348.889 395.893 348.889 387.145 348.889 387.145 348.889 387.145 348.889 385.612 347.446 384.169 345.282 384.169 315.973 384.169 315.973 384.169 315.973 384.169ZM315.973 405.362C313.808 405.362 312.365 406.895 312.365 409.059 312.365 417.807 312.365 417.807 312.365 417.807 312.365 419.25 313.808 420.783 315.973 420.783 328.418 420.783 328.418 420.783 328.418 420.783 330.672 420.783 331.394 419.25 331.394 417.807 331.394 409.059 331.394 409.059 331.394 409.059 331.394 406.895 330.672 405.362 328.418 405.362 315.973 405.362 315.973 405.362 315.973 405.362ZM389.201 364.419C387.668 364.419 386.225 365.862 386.225 367.395 386.225 376.143 386.225 376.143 386.225 376.143 386.225 377.586 387.668 379.029 389.201 379.029 408.139 379.029 408.139 379.029 408.139 379.029 416.977 379.029 416.977 379.029 416.977 379.029 416.977 379.029 416.977 379.029 416.977 379.029 416.977 379.029 416.977 379.029 416.977 379.029 417.699 379.029 417.699 379.029 417.699 379.029 417.699 379.029 417.699 379.029 417.699 379.029 417.699 379.029 417.699 379.029 417.699 379.029 417.699 379.029 417.699 379.029 417.699 379.029 417.699 379.029 417.699 379.029 417.699 379.029 417.699 379.029 417.699 379.029 417.699 379.029 417.699 379.029 417.699 379.029 417.699 379.029 417.699 379.029 417.699 379.029 417.699 379.029 417.699 379.029 417.699 379.029 417.699 379.029 417.699 379.029 417.699 379.029 417.699 379.029 417.699 379.029 417.699 379.029 417.699 379.029 417.699 379.029 417.699 379.029 417.699 379.029 417.699 379.029 417.699 379.029 417.699 379.029 417.699 379.029 417.699 379.029 417.699 379.029 417.699 379.029 417.699 379.029 417.699 379.029 417.699 379.029 417.699 379.029 417.699 379.029 418.42 379.029 418.42 379.029 418.42 379.029 418.42 379.029 418.42 379.029 418.42 379.029 418.42 379.029 418.42 379.029 418.42 379.029 418.42 379.029 418.42 379.029 418.42 379.029 418.42 379.029 418.42 379.029 418.42 379.029 418.42 379.029 418.42 379.029 418.42 379.029 418.42 379.029 418.42 379.029 418.42 379.029 418.42 379.029 418.42 379.029 418.42 379.029 418.42 379.029 418.42 379.029 418.42 379.029 418.42 379.029 418.42 379.029 418.42 379.029 418.42 379.029 418.42 379.029 418.42 379.029 418.42 379.029 418.42 379.029 418.42 379.029 418.42 379.029 418.42 379.029 418.42 379.029 418.42 379.029 418.42 379.029 418.42 379.029 418.42 379.029 418.42 379.029 418.42 379.029 418.42 379.029 418.42 379.029 418.42 379.029 418.42 379.029 418.42 379.029 418.42 379.029 418.42 379.029 418.42 379.029 418.42 379.029 418.42 379.029 418.42 379.029 418.42 379.029 418.42 379.029 418.42 379.029 418.42 379.029 418.42 379.029 418.42 379.029 418.42 379.029 418.42 379.029 418.42 379.029 418.42 379.029 419.142 379.029 419.142 379.029 419.142 379.029 419.142 379.029 419.142 379.029 419.142 379.029 419.142 379.029 419.142 378.307 419.142 378.307 419.142 378.307 419.142 378.307 419.142 378.307 419.142 378.307 419.142 378.307 419.142 378.307 419.142 378.307 419.142 378.307 419.142 378.307 419.142 378.307 419.142 378.307 419.142 378.307 419.142 378.307 419.142 378.307 419.142 378.307 419.142 378.307 419.142 378.307 419.142 378.307 419.142 378.307 419.142 378.307 419.142 378.307 419.142 378.307 419.142 378.307 419.142 378.307 419.142 378.307 419.142 378.307 419.142 378.307 419.142 378.307 419.142 378.307 419.142 378.307 419.142 378.307 419.142 378.307 419.142 378.307 419.142 378.307 419.142 378.307 419.142 378.307 419.142 378.307 419.142 378.307 419.142 378.307 419.142 378.307 419.142 378.307 419.142 378.307 419.142 378.307 419.142 378.307 419.142 378.307 419.142 378.307 419.142 378.307 419.142 378.307 419.142 378.307 419.142 378.307 419.142 378.307 419.863 378.307 419.863 378.307 419.863 378.307 419.863 378.307 419.863 378.307 419.863 378.307 419.863 378.307 419.863 378.307 419.863 378.307 419.863 378.307 419.863 378.307 419.863 378.307 419.863 378.307 419.863 378.307 419.863 378.307 419.863 378.307 419.863 378.307 419.863 378.307 419.863 377.586 419.863 377.586 419.863 377.586 419.863 377.586 419.863 377.586 419.863 377.586 419.863 377.586 419.863 377.586 419.863 377.586 419.863 377.586 419.863 377.586 419.863 377.586 419.863 377.586 419.863 377.586 419.863 377.586 419.863 377.586 419.863 377.586 419.863 377.586 419.863 377.586 419.863 377.586 419.863 377.586 419.863 377.586 419.863 377.586 419.863 377.586 419.863 377.586 419.863 377.586 419.863 377.586 419.863 377.586 419.863 377.586 419.863 377.586 419.863 377.586 419.863 377.586 419.863 377.586 419.863 377.586 419.863 377.586 419.863 377.586 419.863 377.586 419.863 377.586 419.863 377.586 419.863 377.586 419.863 377.586 419.863 377.586 419.863 377.586 419.863 377.586 419.863 377.586 419.863 377.586 419.863 377.586 419.863 377.586 419.863 377.586 419.863 377.586 419.863 377.586 419.863 377.586 419.863 377.586 419.863 377.586 419.863 377.586 419.863 377.586 419.863 377.586 419.863 376.864 419.863 376.864 419.863 376.864 419.863 376.864 419.863 376.864 419.863 376.864 419.863 376.864 419.863 376.864 419.863 376.864 419.863 376.864 419.863 376.864 419.863 376.864 419.863 376.864 419.863 376.864 419.863 376.864 419.863 376.864 419.863 376.864 419.863 376.864 419.863 376.864 419.863 376.864 419.863 376.864 419.863 376.864 419.863 376.864 419.863 376.864 419.863 376.864 419.863 376.864 419.863 376.864 419.863 376.864 419.863 376.864 419.863 376.864 419.863 376.864 419.863 376.864 419.863 376.864 419.863 376.864 419.863 376.864 419.863 376.864 419.863 376.864 419.863 376.864 419.863 376.864 419.863 376.864 419.863 376.864 419.863 376.864 419.863 376.864 419.863 376.864 419.863 376.864 419.863 376.143 419.863 376.143 419.863 376.143 419.863 376.143 419.863 376.143 419.863 376.143 419.863 376.143 419.863 376.143 419.863 376.143 419.863 376.143 419.863 376.143 419.863 376.143 419.863 376.143 419.863 376.143 419.863 376.143 419.863 367.395 419.863 367.395 419.863 367.395 419.863 346.112 419.863 346.112 419.863 346.112 419.863 343.948 419.142 343.226 416.977 343.226 408.139 343.226 408.139 343.226 408.139 343.226 406.696 343.226 405.253 343.948 405.253 346.112 405.253 364.419 405.253 364.419 405.253 364.419 389.201 364.419 389.201 364.419 389.201 364.419ZM405.253 384.169C403.089 384.169 401.556 385.612 401.556 387.145 401.556 395.893 401.556 395.893 401.556 395.893 401.556 398.057 403.089 399.5 405.253 399.5 417.699 399.5 417.699 399.5 417.699 399.5 419.863 399.5 421.396 398.057 421.396 395.893 421.396 387.145 421.396 387.145 421.396 387.145 421.396 385.612 419.863 384.169 417.699 384.169L405.253 384.169Z" fill-rule="evenodd"/></g></svg>