<svg width="96" height="96" xmlns="http://www.w3.org/2000/svg" xmlns:xlink="http://www.w3.org/1999/xlink" overflow="hidden"><defs><clipPath id="clip0"><rect x="277" y="312" width="96" height="96"/></clipPath><linearGradient x1="303.661" y1="396.83" x2="346.275" y2="396.83" gradientUnits="userSpaceOnUse" spreadMethod="pad" id="fill1"><stop offset="0" stop-color="#FFF21F"/><stop offset="0.0594873" stop-color="#FFE400"/><stop offset="0.1303" stop-color="#FED700"/><stop offset="0.2032" stop-color="#FDCF00"/><stop offset="0.2809" stop-color="#FCCD00"/><stop offset="0.6685" stop-color="#F1942E"/><stop offset="0.8876" stop-color="#EA652D"/><stop offset="1" stop-color="#E5352B"/></linearGradient><linearGradient x1="276.982" y1="353.636" x2="372.955" y2="353.636" gradientUnits="userSpaceOnUse" spreadMethod="pad" id="fill2"><stop offset="0" stop-color="#FFF21F"/><stop offset="0.0594873" stop-color="#FFE400"/><stop offset="0.1303" stop-color="#FED700"/><stop offset="0.2032" stop-color="#FDCF00"/><stop offset="0.2809" stop-color="#FCCD00"/><stop offset="0.6685" stop-color="#F1942E"/><stop offset="0.8876" stop-color="#EA652D"/><stop offset="1" stop-color="#E5352B"/></linearGradient><linearGradient x1="311.058" y1="345.914" x2="338.878" y2="345.914" gradientUnits="userSpaceOnUse" spreadMethod="pad" id="fill3"><stop offset="0" stop-color="#FFF21F"/><stop offset="0.0594873" stop-color="#FFE400"/><stop offset="0.1303" stop-color="#FED700"/><stop offset="0.2032" stop-color="#FDCF00"/><stop offset="0.2809" stop-color="#FCCD00"/><stop offset="0.6685" stop-color="#F1942E"/><stop offset="0.8876" stop-color="#EA652D"/><stop offset="1" stop-color="#E5352B"/></linearGradient><linearGradient x1="302.535" y1="335.893" x2="347.4" y2="335.893" gradientUnits="userSpaceOnUse" spreadMethod="pad" id="fill4"><stop offset="0" stop-color="#FFF21F"/><stop offset="0.0594873" stop-color="#FFE400"/><stop offset="0.1303" stop-color="#FED700"/><stop offset="0.2032" stop-color="#FDCF00"/><stop offset="0.2809" stop-color="#FCCD00"/><stop offset="0.6685" stop-color="#F1942E"/><stop offset="0.8876" stop-color="#EA652D"/><stop offset="1" stop-color="#E5352B"/></linearGradient><linearGradient x1="319.764" y1="358.92" x2="330.913" y2="358.92" gradientUnits="userSpaceOnUse" spreadMethod="pad" id="fill5"><stop offset="0" stop-color="#FFF21F"/><stop offset="0.0594873" stop-color="#FFE400"/><stop offset="0.1303" stop-color="#FED700"/><stop offset="0.2032" stop-color="#FDCF00"/><stop offset="0.2809" stop-color="#FCCD00"/><stop offset="0.6685" stop-color="#F1942E"/><stop offset="0.8876" stop-color="#EA652D"/><stop offset="1" stop-color="#E5352B"/></linearGradient></defs><g clip-path="url(#clip0)" transform="translate(-277 -312)"><path d="M341.317 395.39C338.148 395.39 338.148 395.39 338.148 395.39 338.148 391.461 338.148 391.461 338.148 391.461 311.852 391.461 311.852 391.461 311.852 391.461 311.852 395.39 311.852 395.39 311.852 395.39 308.683 395.39 308.683 395.39 308.683 395.39 305.832 395.39 303.741 398.622 303.741 402.17 346.386 402.17 346.386 402.17 346.386 402.17 346.259 398.622 344.168 395.39 341.317 395.39" fill="url(#fill1)" fill-rule="evenodd"/><path d="M366.22 317.83C283.78 317.83 283.78 317.83 283.78 317.83 280.232 317.83 277 321.061 277 324.61 277 382.97 277 382.97 277 382.97 277 386.519 280.168 389.37 283.78 389.37 366.22 389.37 366.22 389.37 366.22 389.37 369.768 389.37 373 386.519 373 382.97 373 324.61 373 324.61 373 324.61 372.937 321.061 369.768 317.83 366.22 317.83L366.22 317.83ZM324.968 383.034C323.574 383.034 322.497 381.956 322.497 380.562 322.497 379.168 323.574 378.091 324.968 378.091 326.362 378.091 327.44 379.168 327.44 380.562 327.44 381.956 326.362 383.034 324.968 383.034L324.968 383.034ZM367.297 369.853C367.297 370.234 366.917 370.55 366.6 370.55 283.4 370.55 283.4 370.55 283.4 370.55 283.02 370.55 282.703 370.17 282.703 369.853 282.703 324.99 282.703 324.99 282.703 324.99 282.703 324.61 283.083 324.293 283.4 324.293 366.6 324.293 366.6 324.293 366.6 324.293 366.98 324.293 367.297 324.673 367.297 324.99L367.297 369.853 367.297 369.853 367.297 369.853Z" fill="url(#fill2)" fill-rule="evenodd"/><path d="M312.105 345.584C310.648 346.978 310.648 349.133 312.105 350.59 312.802 351.287 313.562 351.667 314.576 351.667 315.273 351.667 316.35 351.287 317.048 350.59 321.356 346.345 328.453 346.345 332.762 350.59 334.22 351.984 336.311 351.984 337.768 350.59 339.226 349.196 339.226 347.042 337.768 345.584 330.671 338.424 319.265 338.424 312.105 345.584" fill="url(#fill3)" fill-rule="evenodd"/><path d="M324.968 328.602C316.794 328.602 309.317 331.453 303.614 337.093 302.22 338.487 302.22 340.958 303.614 342.416 305.008 343.493 307.162 343.493 308.62 342.416 312.865 337.853 318.949 335.699 324.968 335.699 331.051 335.699 336.691 337.79 341.317 342.416 342.014 343.113 342.711 343.113 343.788 343.113 344.485 343.113 345.562 343.113 346.259 342.416 347.653 341.022 347.653 338.55 346.259 337.093 340.62 331.453 333.143 328.602 324.968 328.602" fill="url(#fill4)" fill-rule="evenodd"/><path d="M321.356 355.216C319.202 357.37 319.202 360.539 321.356 362.63 323.511 364.784 327.123 364.784 329.277 362.63 331.432 360.475 331.432 357.307 329.277 355.216 327.123 353.125 323.511 353.061 321.356 355.216" fill="url(#fill5)" fill-rule="evenodd"/></g></svg>