<?xml version="1.0"?><svg xmlns="http://www.w3.org/2000/svg"  viewBox="0 0 32 32" width="32px" height="32px">    <path d="M 4.2226562 4.0039062 C 3.8429062 3.9850312 3.457375 4.0679063 3.109375 4.2539062 C 2.424375 4.6189063 2 5.3227969 2 6.0917969 L 2 25.908203 C 2 26.677203 2.425375 27.381094 3.109375 27.746094 C 3.426375 27.915094 3.7721875 28 4.1171875 28 C 4.5321875 28 4.9456875 27.878672 5.3046875 27.638672 L 16.152344 20.361328 L 26.728516 27.630859 C 28.067483 28.549432 30 27.532448 30 25.908203 L 30 6.0917969 C 30 4.8736136 28.911343 3.9954672 27.802734 4.0214844 C 27.433198 4.0301544 27.061182 4.1391187 26.726562 4.3691406 L 16.152344 11.640625 L 5.3046875 4.3632812 C 4.9766875 4.1427813 4.6024062 4.0227813 4.2226562 4.0039062 z M 27.970703 5.9785156 C 27.991931 5.9900899 28 6.0269191 28 6.0917969 L 28 25.908203 C 28 26.036549 27.96562 26.053104 27.861328 25.982422 L 17.939453 19.162109 L 20.074219 17.728516 C 20.653219 17.338516 21 16.693 21 16 C 21 15.307 20.653219 14.661484 20.074219 14.271484 L 17.939453 12.839844 L 27.861328 6.0175781 C 27.915092 5.9806219 27.949475 5.9669413 27.970703 5.9785156 z"/></svg>