<svg version="1.1" xmlns="http://www.w3.org/2000/svg" xmlns:xlink="http://www.w3.org/1999/xlink" width="183" height="89" viewBox="0,0,183,89"><g transform="translate(-148.5,-135.5)"><g data-paper-data="{&quot;isPaintingLayer&quot;:true}" fill="#e4f0fa" fill-rule="nonzero" stroke="#b8bfc5" stroke-width="2" stroke-linecap="butt" stroke-linejoin="miter" stroke-miterlimit="10" stroke-dasharray="" stroke-dashoffset="0" style="mix-blend-mode: normal"><path d="M149.5,214.51921c0,-17.85149 0,-57.11129 0,-69.13131c0,-0.6272 0,-1.18022 0,-1.65217c0,-3.70724 3.9545,-7.23571 8.68095,-7.23571c17.9361,0 130.33049,0 163.2623,0c5.73212,0 9.05676,4.58291 9.05676,9.10741c0,9.87808 0,48.41836 0,67.32083c0,6.41773 -3.78934,10.57176 -10.2516,10.57176c-34.32514,0 -144.06257,0 -161.90718,0c-4.80521,0 -8.84122,-3.47052 -8.84122,-8.98079z"/></g></g></svg>